<svg width="115" height="20" viewBox="0 0 115 20" fill="none" xmlns="http://www.w3.org/2000/svg">
<path d="M14.2082 9.61268C15.4189 9.94131 16.3448 10.5282 16.9858 11.3732C17.6505 12.2183 17.9828 13.2864 17.9828 14.5775C17.9828 16.3146 17.2944 17.6526 15.9175 18.5916C14.5643 19.5305 12.582 20 9.97068 20H0V0H9.40093C11.7986 0 13.6503 0.469485 14.956 1.40845C16.2617 2.32395 16.9145 3.57981 16.9145 5.17606C16.9145 6.20892 16.6772 7.10094 16.2024 7.85211C15.7276 8.60329 15.0628 9.19014 14.2082 9.61268ZM3.45413 2.60563V8.59155H9.04483C10.4455 8.59155 11.5256 8.33333 12.2853 7.8169C13.0687 7.30047 13.4604 6.56103 13.4604 5.59859C13.4604 4.61268 13.0806 3.87324 12.3209 3.38028C11.5612 2.86385 10.4692 2.60563 9.04483 2.60563H3.45413ZM9.79263 17.3944C12.9263 17.3944 14.4931 16.3615 14.4931 14.2958C14.4931 12.23 12.9263 11.1972 9.79263 11.1972H3.45413V17.3944H9.79263Z" fill="white"/>
<path d="M42.3595 17.1479V20H27.1899V0H41.9678V2.8169H30.644V8.4507H40.7215V11.2324H30.644V17.1479H42.3595Z" fill="white"/>
<path d="M51.7716 0H55.2257V17.1479H66.0866V20H51.7716V0Z" fill="white"/>
<path d="M74.093 0H77.5471V17.1479H88.408V20H74.093V0Z" fill="white"/>
<path d="M109.409 15.2465H98.5484L96.4118 20H93.0289L102.287 0H105.706L115 20H111.51L109.409 15.2465ZM108.199 12.5352L103.997 3.09859L99.7591 12.5352H108.199Z" fill="white"/>
</svg>
