<svg width="70" height="70" viewBox="0 0 70 70" fill="none" xmlns="http://www.w3.org/2000/svg">
<path d="M42.9866 13.9198C42.4237 9.97509 38.9901 7 35.0001 7C32.434 7 29.997 8.23825 28.4818 10.3135C28.1723 10.7367 28.2649 11.3304 28.6881 11.6399C29.11 11.9483 29.705 11.8568 30.014 11.433C31.1738 9.84606 33.0374 8.89839 34.9998 8.89839C38.0513 8.89839 40.6766 11.1725 41.1071 14.1876C41.1749 14.6611 41.5812 15.0029 42.0458 15.0029C42.0901 15.0029 42.1357 14.9996 42.181 14.9934C42.6999 14.9192 43.0605 14.4384 42.9866 13.9198Z" fill="black"/>
<path d="M56.6937 24.5452L53.8462 19.7994C53.6749 19.5133 53.366 19.3386 53.0323 19.3386H50.3036C49.7797 19.3386 49.3545 19.7638 49.3545 20.2877C49.3545 20.8116 49.7797 21.2367 50.3036 21.2367H52.4951L54.2036 24.0842H15.7932L17.5017 21.2367H18.5069C19.0308 21.2367 19.456 20.8116 19.456 20.2877C19.456 19.7638 19.0308 19.3386 18.5069 19.3386H16.9645C16.6308 19.3386 16.3219 19.5133 16.1506 19.7994L13.3031 24.5452C13.1271 24.8389 13.1229 25.204 13.2912 25.5015C13.4594 25.7991 13.7747 25.9831 14.117 25.9831H55.8798C56.2221 25.9831 56.5371 25.7991 56.7056 25.5015C56.8742 25.204 56.8697 24.8383 56.6937 24.5452Z" fill="black"/>
<path d="M51.9636 15.7934C51.8307 15.579 51.6185 15.4269 51.3733 15.3696L38.4343 12.3434C38.1893 12.2858 37.9313 12.3286 37.7172 12.461C37.5036 12.5939 37.3512 12.8061 37.2939 13.0513L36.3182 17.2224C36.1986 17.7327 36.5156 18.2432 37.0262 18.3622C37.5364 18.4818 38.0475 18.1648 38.1665 17.6543L38.9262 14.4078L50.0166 17.0019L48.2739 24.4528C48.1543 24.9631 48.4713 25.4736 48.9819 25.5927C49.055 25.6096 49.1276 25.6177 49.1993 25.6177C49.6303 25.6177 50.0204 25.3224 50.1219 24.885L52.081 16.51C52.1388 16.265 52.0965 16.007 51.9636 15.7934Z" fill="black"/>
<path d="M35.5007 18.0372L34.6359 10.7225C34.6065 10.4725 34.4788 10.2442 34.2808 10.0885C34.0828 9.93276 33.8329 9.86157 33.5818 9.89105L17.7067 11.7675C17.1864 11.8292 16.8143 12.3008 16.8758 12.8216L18.3176 25.0215C18.3749 25.5045 18.7845 25.8596 19.2591 25.8596C19.2961 25.8596 19.3342 25.8571 19.372 25.8529C19.892 25.7912 20.2641 25.3196 20.2029 24.7987L18.8723 13.5407L32.8624 11.8873L33.6154 18.2593C33.6771 18.7799 34.1465 19.1497 34.6696 19.0908C35.1899 19.0296 35.5619 18.5577 35.5007 18.0372Z" fill="black"/>
<path d="M43.0075 24.6732L41.1236 16.8388C41.0646 16.5944 40.9108 16.3827 40.6964 16.2512C40.482 16.1208 40.2248 16.0799 39.9787 16.1383L24.6884 19.8155C24.1787 19.9379 23.865 20.4507 23.9874 20.9604L24.9289 24.8762C25.0513 25.3864 25.5641 25.7004 26.0735 25.5772C26.5832 25.4548 26.8969 24.9421 26.7745 24.4324L26.0546 21.4392L39.4993 18.2063L41.1614 25.1175C41.2656 25.5527 41.6549 25.8447 42.0835 25.8447C42.1571 25.8447 42.2317 25.8361 42.3065 25.818C42.8162 25.6954 43.1298 25.1829 43.0075 24.6732Z" fill="black"/>
<path d="M56.8303 24.9854C56.8042 24.4809 56.3876 24.085 55.8821 24.085H14.1194C13.6138 24.085 13.1973 24.4807 13.1711 24.9854L11.2727 62.0022C11.2594 62.262 11.3534 62.5161 11.5325 62.7047C11.7118 62.8929 11.9604 63 12.2207 63H57.7799C58.0399 63 58.2888 62.8932 58.469 62.7047C58.6478 62.5161 58.7418 62.2622 58.7287 62.0022L56.8303 24.9854ZM13.2195 61.1016L15.0206 25.9831H54.9797L56.7808 61.1016H13.2195Z" fill="black"/>
<path d="M42.1189 27.8813C40.5487 27.8813 39.2715 29.1585 39.2715 30.7288C39.2715 32.2991 40.5487 33.5763 42.1189 33.5763C43.6892 33.5763 44.9664 32.2991 44.9664 30.7288C44.9664 29.1585 43.6892 27.8813 42.1189 27.8813ZM42.1189 31.6781C41.5953 31.6781 41.1699 31.2524 41.1699 30.7291C41.1699 30.2057 41.5956 29.78 42.1189 29.78C42.6423 29.78 43.068 30.2057 43.068 30.7291C43.068 31.2524 42.6423 31.6781 42.1189 31.6781Z" fill="black"/>
<path d="M27.8807 27.8813C26.3104 27.8813 25.0332 29.1585 25.0332 30.7288C25.0332 32.2991 26.3104 33.5763 27.8807 33.5763C29.4509 33.5763 30.7281 32.2991 30.7281 30.7288C30.7281 29.1585 29.4509 27.8813 27.8807 27.8813ZM27.8807 31.6781C27.3573 31.6781 26.9316 31.2524 26.9316 30.7291C26.9316 30.2057 27.3573 29.78 27.8807 29.78C28.404 29.78 28.8297 30.2057 28.8297 30.7291C28.8297 31.2524 28.404 31.6781 27.8807 31.6781Z" fill="black"/>
<path d="M42.118 30.7288H42.0448C41.5209 30.7288 41.0958 31.1539 41.0958 31.6778C41.0958 31.8074 41.1214 31.9311 41.1689 32.0438V36.8981C41.1689 40.2997 38.4013 43.0676 34.9993 43.0676C31.5974 43.0676 28.8298 40.3 28.8298 36.8981V31.6781C28.8298 31.1542 28.4046 30.729 27.8807 30.729C27.3568 30.729 26.9316 31.1542 26.9316 31.6781V36.8983C26.9316 41.3469 30.5507 44.966 34.9993 44.966C39.4479 44.966 43.067 41.3469 43.067 36.8983V31.6781C43.067 31.1542 42.6419 30.7288 42.118 30.7288Z" fill="black"/>
</svg>
