<svg width="70" height="70" viewBox="0 0 70 70" fill="none" xmlns="http://www.w3.org/2000/svg">
<path d="M53.459 20.3483H40.9616V16.5372C40.9616 15.9375 40.8428 15.3437 40.612 14.7903C40.3812 14.2368 40.0429 13.7346 39.6169 13.3127C39.1908 12.8908 38.6853 12.5576 38.1297 12.3323C37.574 12.107 36.9793 11.9942 36.3798 12.0002H8.53502C7.93799 11.9951 7.34593 12.109 6.79337 12.3352C6.24081 12.5615 5.73882 12.8955 5.31669 13.3178C4.89456 13.7401 4.56074 14.2423 4.33471 14.795C4.10867 15.3478 3.99495 15.94 4.00017 16.5372V47.5001C3.99495 48.0973 4.10867 48.6895 4.33471 49.2422C4.56074 49.795 4.89456 50.2971 5.31669 50.7195C5.73882 51.1418 6.24081 51.4758 6.79337 51.702C7.34593 51.9282 7.93799 52.0421 8.53502 52.037H11.7031C11.9846 53.7043 12.8473 55.218 14.1383 56.3095C15.4293 57.4011 17.0652 58 18.7556 58C20.4461 58 22.0819 57.4011 23.3729 56.3095C24.6639 55.218 25.5267 53.7043 25.8081 52.037H44.0657C44.3471 53.7043 45.2099 55.218 46.5009 56.3095C47.7919 57.4011 49.4277 58 51.1182 58C52.8086 58 54.4445 57.4011 55.7355 56.3095C57.0265 55.218 57.8892 53.7043 58.1706 52.037H61.3388C63.8729 52.037 66 50.0364 66 47.5001V32.2401C66 32.2304 65.9668 32.2209 65.9659 32.2111C65.9659 32.1892 65.9319 32.1674 65.9307 32.1456C65.9293 32.1275 65.9274 32.1096 65.9252 32.0917C65.9227 32.0711 65.9194 32.0508 65.9159 32.0304C65.9123 32.0099 65.909 31.9934 65.9048 31.9752C65.9005 31.957 65.8954 31.9367 65.89 31.9176C65.8845 31.8985 65.8796 31.8808 65.8729 31.8627C65.8663 31.8447 65.8598 31.8256 65.8527 31.8072C65.8455 31.7888 65.8387 31.7718 65.8309 31.7544C65.823 31.737 65.8138 31.7188 65.8051 31.7011C65.7965 31.6833 65.7881 31.667 65.7781 31.65C65.768 31.6329 65.7583 31.6159 65.7479 31.6004C65.7375 31.5849 65.7259 31.5663 65.7138 31.5503C65.7018 31.5343 65.692 31.5205 65.6806 31.5058C65.6692 31.4912 65.6535 31.4717 65.6394 31.4561C65.6329 31.4487 65.6273 31.4407 65.6205 31.4334L56.8457 21.8537C56.4154 21.3828 55.8924 21.006 55.3096 20.747C54.7268 20.4879 54.0968 20.3522 53.459 20.3483ZM18.7548 55.6778C17.8115 55.6778 16.8894 55.398 16.1051 54.8739C15.3208 54.3497 14.7096 53.6047 14.3486 52.733C13.9876 51.8613 13.8932 50.9022 14.0772 49.9768C14.2612 49.0515 14.7154 48.2015 15.3824 47.5343C16.0494 46.8672 16.8992 46.4129 17.8243 46.2288C18.7495 46.0447 19.7084 46.1392 20.5799 46.5003C21.4513 46.8613 22.1962 47.4727 22.7202 48.2572C23.2443 49.0417 23.524 49.964 23.524 50.9075C23.5225 52.1722 23.0196 53.3847 22.1255 54.279C21.2314 55.1733 20.0192 55.6764 18.7548 55.6778ZM38.577 32.2401V49.6519H25.8072C25.2378 46.4148 22.293 43.6889 18.7556 43.6889C15.2182 43.6889 12.2726 46.4148 11.704 49.6519H8.53502C8.25104 49.6574 7.96888 49.6055 7.70544 49.4993C7.442 49.3931 7.20272 49.2348 7.00193 49.0338C6.80114 48.8329 6.64298 48.5935 6.53693 48.3299C6.43088 48.0664 6.37913 47.7841 6.38478 47.5001V16.5372C6.37913 16.2531 6.43088 15.9709 6.53693 15.7073C6.64298 15.4438 6.80114 15.2044 7.00193 15.0034C7.20272 14.8025 7.442 14.6442 7.70544 14.538C7.96888 14.4318 8.25104 14.3799 8.53502 14.3854H36.3798C36.6662 14.379 36.951 14.4299 37.2175 14.5351C37.484 14.6404 37.7267 14.7979 37.9315 14.9984C38.1362 15.1989 38.2988 15.4383 38.4096 15.7026C38.5205 15.9668 38.5774 16.2506 38.577 16.5372V32.2401ZM51.1173 55.6778C50.1741 55.6778 49.252 55.398 48.4677 54.8739C47.6834 54.3497 47.0721 53.6047 46.7111 52.733C46.3502 51.8613 46.2557 50.9022 46.4397 49.9768C46.6238 49.0515 47.078 48.2015 47.745 47.5343C48.412 46.8672 49.2617 46.4129 50.1869 46.2288C51.112 46.0447 52.071 46.1392 52.9424 46.5003C53.8139 46.8613 54.5587 47.4727 55.0828 48.2572C55.6068 49.0417 55.8865 49.964 55.8865 50.9075C55.8851 52.1722 55.3822 53.3847 54.4881 54.279C53.594 55.1733 52.3817 55.6764 51.1173 55.6778ZM63.6154 47.5001C63.6154 48.7213 62.558 49.6519 61.3371 49.6519H58.1689C57.5995 46.4148 54.6547 43.6889 51.1173 43.6889C47.5799 43.6889 44.6342 46.4148 44.0648 49.6519H40.9616V33.4668H63.6154V47.5001ZM40.9616 31.0816V22.7335H53.459C53.7678 22.74 54.072 22.8101 54.3526 22.9392C54.6333 23.0683 54.8843 23.2538 55.0902 23.4841L62.0313 31.0816H40.9616Z" fill="black"/>
<path d="M31.3981 23.0674L23.0675 18.1584C22.8906 18.0546 22.6902 18 22.4863 18C22.2823 18 22.0819 18.0546 21.9051 18.1584L13.5821 23.0674C13.4058 23.1709 13.2592 23.32 13.157 23.4996C13.0549 23.6793 13.0007 23.8833 13 24.091V33.909C13 34.1165 13.0534 34.3203 13.155 34.5C13.2565 34.6797 13.4025 34.8289 13.5783 34.9327L21.8978 39.8416C22.0736 39.9454 22.273 40 22.476 40C22.6791 40 22.8785 39.9454 23.0543 39.8416L31.3968 34.9327C31.5757 34.8304 31.7255 34.6822 31.8313 34.5026C31.9371 34.3231 31.9952 34.1185 32 33.909V24.091C31.9953 23.8817 31.9374 23.6772 31.8318 23.4977C31.7263 23.3182 31.5768 23.1699 31.3981 23.0674ZM22.4774 20.547L24.2417 21.5882L18.2362 25.1319L16.4719 24.0907L22.4774 20.547ZM21.2609 36.7714L15.313 33.2273V26.1385L21.2609 29.6826V36.7714ZM22.4774 27.636L20.5493 26.4982L26.5548 22.9544L28.4829 24.0921L22.4774 27.636ZM29.687 33.2266L23.5739 36.7714V29.6826L29.687 26.1385V33.2266Z" fill="black"/>
</svg>
