<svg width="32" height="32" viewBox="0 0 32 32" fill="none" xmlns="http://www.w3.org/2000/svg">
<rect width="32" height="32" rx="16" fill="#2B2A2A"/>
<path d="M24.2307 8.58502C23.0741 7.42842 21.5266 6.7915 19.8729 6.7915C18.4491 6.7915 17.1043 7.26369 16.0196 8.13299C14.9194 7.26369 13.5729 6.7915 12.163 6.7915C10.5016 6.7915 8.95008 7.42869 7.79352 8.58502C6.63691 9.74139 6 11.2891 6 12.9426C6 14.5963 6.63691 16.1438 7.79352 17.3001L15.4914 24.998C15.6316 25.1385 15.8158 25.2088 16 25.2088C16.1837 25.2088 16.3674 25.1387 16.5079 24.9989L24.212 17.3183C25.3652 16.1392 26 14.5896 26 12.9546C26 11.3045 25.3736 9.75482 24.2307 8.58502ZM23.1897 16.3056L16.0007 23.4726L8.81078 16.2829C7.92613 15.398 7.43883 14.2117 7.43883 12.9426C7.43883 11.6735 7.92613 10.4872 8.81078 9.60232C9.69566 8.71768 10.8861 8.23037 12.163 8.23037C13.4196 8.23037 14.6125 8.71982 15.5211 9.60807C15.8026 9.88361 16.2542 9.88119 16.5326 9.60232C17.4175 8.71768 18.6036 8.23037 19.8729 8.23037C21.1422 8.23037 22.3283 8.71768 23.2072 9.59654C24.0803 10.4898 24.5611 11.6824 24.5611 12.9546C24.5611 14.2114 24.072 15.404 23.1897 16.3056Z" fill="white"/>
</svg>
