<svg width="30" height="30" viewBox="0 0 30 30" fill="none" xmlns="http://www.w3.org/2000/svg">
<path fill-rule="evenodd" clip-rule="evenodd" d="M20.145 6.87622H9.85545C8.21327 6.87622 6.87695 8.21246 6.87695 9.85471V20.1442C6.87695 21.7867 8.21327 23.123 9.85545 23.123H20.145C21.7875 23.123 23.1238 21.7867 23.1238 20.1442V9.85471C23.1238 8.21254 21.7875 6.87622 20.145 6.87622ZM15 20.3479C12.0512 20.3479 9.65179 17.9484 9.65179 14.9993C9.65179 12.0505 12.0512 9.65105 15 9.65105C17.9492 9.65105 20.3486 12.0505 20.3486 14.9993C20.3486 17.9484 17.9492 20.3479 15 20.3479ZM20.5207 10.757C19.8225 10.757 19.2549 10.1893 19.2549 9.49158C19.2549 8.79375 19.8225 8.22605 20.5207 8.22605C21.2185 8.22605 21.7861 8.79375 21.7861 9.49158C21.7861 10.1894 21.2185 10.757 20.5207 10.757Z" fill="#7C7C7C"/>
<path fill-rule="evenodd" clip-rule="evenodd" d="M15.0007 11.9116C13.2984 11.9116 11.9121 13.2972 11.9121 14.9996C11.9121 16.7026 13.2984 18.0885 15.0007 18.0885C16.7037 18.0885 18.089 16.7026 18.089 14.9996C18.089 13.2972 16.7037 11.9116 15.0007 11.9116Z" fill="#7C7C7C"/>
</svg>
