<svg width="36" height="36" viewBox="0 0 36 36" fill="none" xmlns="http://www.w3.org/2000/svg">
<path d="M0 0H36L0 36V0Z" fill="#FF6565"/>
<path d="M7.63296 20.2873L3.60528 16.2597L4.50472 15.3602L8.8605 16.4011L6.16218 13.7028L7.01071 12.8542L11.0384 16.8819L10.1559 17.7644L5.78317 16.7292L8.48715 19.4332L7.63296 20.2873ZM10.819 9.04598L11.543 9.77006L9.3991 11.914L10.2759 12.7908L12.2445 10.8222L12.9403 11.518L10.9717 13.4866L11.9617 14.4766L14.1452 12.293L14.8862 13.0341L11.8259 16.0944L7.79821 12.0667L10.819 9.04598ZM11.093 8.77198L11.9811 7.88385L15.3639 9.97689L13.3331 6.53187L14.1646 5.70031L17.6323 7.77637L15.5279 4.33701L16.3991 3.46585L19.3407 8.57965L18.4582 9.46212L15.0188 7.40302L17.0892 10.8311L16.1898 11.7305L11.093 8.77198Z" fill="white"/>
</svg>
