<svg width="30" height="30" viewBox="0 0 30 30" fill="none" xmlns="http://www.w3.org/2000/svg">
<path d="M8.93415 15.7341C8.42331 16.7382 9.00331 17.2182 10.3266 18.0382C11.4516 18.7332 13.0058 18.9874 14.0041 19.0891C13.595 19.4824 15.47 17.6791 10.07 22.8732C8.92498 23.9707 10.7683 25.7316 11.9125 24.6574L15.01 21.6699C16.1958 22.8107 17.3325 23.9041 18.1075 24.6616C19.2525 25.7399 21.095 23.9941 19.9625 22.8774C19.8775 22.7966 15.765 18.8516 16.0158 19.0932C17.0266 18.9916 18.5575 18.7224 19.6691 18.0424L19.6683 18.0416C20.9916 17.2174 21.5716 16.7382 21.0683 15.7341C20.7641 15.1641 19.9441 14.6874 18.8525 15.5116C18.8525 15.5116 17.3783 16.6407 15.0008 16.6407C12.6225 16.6407 11.1491 15.5116 11.1491 15.5116C10.0583 14.6832 9.23498 15.1641 8.93415 15.7341Z" fill="#AB844A"/>
<path d="M14.9983 15.1183C17.8966 15.1183 20.2633 12.8533 20.2633 10.065C20.2633 7.265 17.8966 5 14.9983 5C12.0991 5 9.73242 7.265 9.73242 10.065C9.73242 12.8533 12.0991 15.1183 14.9983 15.1183ZM14.9983 7.56583C16.4224 7.56583 17.5841 8.68333 17.5841 10.065C17.5841 11.435 16.4224 12.5525 14.9983 12.5525C13.5741 12.5525 12.4124 11.435 12.4124 10.065C12.4116 8.6825 13.5733 7.56583 14.9983 7.56583Z" fill="#AB844A"/>
</svg>
