<svg width="70" height="70" viewBox="0 0 70 70" fill="none" xmlns="http://www.w3.org/2000/svg">
<path d="M53.282 25.1562C53.282 14.5765 44.7055 6 34.1258 6C23.5461 6 14.9696 14.5765 14.9696 25.1562C12.2345 25.4968 9.64844 27.2847 9.64844 31.4352V41.439C9.64844 46.1216 12.9263 47.8244 16.0338 47.8244H19.1201C19.7078 47.8244 20.1844 47.3479 20.1844 46.7602V26.1566C20.1844 25.5689 19.7078 25.0924 19.1201 25.0924H17.0981C17.0981 15.6883 24.7217 8.06461 34.1258 8.06461C43.5299 8.06461 51.1536 15.6883 51.1536 25.0924H49.1315C48.5438 25.0924 48.0673 25.5689 48.0673 26.1566V46.7282C48.0673 47.316 48.5438 47.7925 49.1315 47.7925H51.1536C50.8556 55.1038 47.3436 56.8172 40.3303 57.1258V56.4128C40.3303 55.2372 39.3774 54.2843 38.2018 54.2843H31.5078C30.3322 54.2843 29.3793 55.2372 29.3793 56.4128V59.8715C29.3793 61.0471 30.3322 62 31.5078 62H38.2231C39.3987 62 40.3516 61.0471 40.3516 59.8715V59.2543C47.0988 58.9456 52.9308 57.5515 53.282 47.7286C56.0171 47.3881 58.6032 45.6002 58.6032 41.4496V31.4458C58.6032 27.274 56.0278 25.4968 53.282 25.1562ZM18.0559 27.1463V45.664H15.9806C14.4056 45.664 11.7237 45.1106 11.7237 41.4071V31.4033C11.7237 27.7317 14.3736 27.1463 15.9806 27.1463H18.0559ZM38.2231 58.2645V59.8822H31.5078V56.4234H38.2231V58.2645ZM56.4747 41.439C56.4747 45.1106 53.8248 45.6959 52.2178 45.6959H50.1958V27.2208H52.271C53.8461 27.2208 56.528 27.7742 56.528 31.4778L56.4747 41.439Z" fill="black"/>
</svg>
