<svg width="16" height="16" viewBox="0 0 16 16" fill="none" xmlns="http://www.w3.org/2000/svg">
<path d="M7.99992 9.01221C3.19252 9.01221 0.544922 11.2865 0.544922 15.4161C0.544922 15.7386 0.806328 16 1.12886 16H14.871C15.1935 16 15.4549 15.7386 15.4549 15.4161C15.4549 11.2867 12.8073 9.01221 7.99992 9.01221ZM1.73405 14.8322C1.96373 11.7445 4.06883 10.1801 7.99992 10.1801C11.931 10.1801 14.0361 11.7445 14.266 14.8322H1.73405Z" fill="#7C7C7C"/>
<path d="M8.00042 0C5.79214 0 4.12695 1.69869 4.12695 3.95116C4.12695 6.26959 5.86458 8.15553 8.00042 8.15553C10.1363 8.15553 11.8739 6.26959 11.8739 3.95134C11.8739 1.69869 10.2087 0 8.00042 0ZM8.00042 6.98784C6.50845 6.98784 5.29483 5.62569 5.29483 3.95134C5.29483 2.3385 6.43273 1.16788 8.00042 1.16788C9.54302 1.16788 10.706 2.36438 10.706 3.95134C10.706 5.62569 9.49239 6.98784 8.00042 6.98784Z" fill="#7C7C7C"/>
</svg>
