<svg width="30" height="30" viewBox="0 0 30 30" fill="none" xmlns="http://www.w3.org/2000/svg">
<path fill-rule="evenodd" clip-rule="evenodd" d="M22.4898 16.5973C23.1785 17.2692 23.9067 17.9017 24.5249 18.6445C24.7979 18.9727 25.0563 19.3113 25.2532 19.6916C25.5327 20.2365 25.2793 20.8334 24.7926 20.8663L21.7679 20.865C20.9872 20.9292 20.365 20.6144 19.8403 20.0803C19.4231 19.655 19.0331 19.1998 18.6303 18.7601C18.4664 18.579 18.293 18.4097 18.087 18.2746C17.6738 18.0069 17.3154 18.0882 17.0792 18.5185C16.839 18.9569 16.7826 19.4437 16.7605 19.9318C16.7276 20.6444 16.5125 20.8308 15.7974 20.8651C14.2672 20.9359 12.8159 20.7035 11.4682 19.9332C10.2779 19.2536 9.35685 18.2928 8.55496 17.2064C6.99219 15.0883 5.79529 12.763 4.72063 10.3708C4.47773 9.83166 4.65516 9.54274 5.24804 9.53232C6.23639 9.5128 7.22434 9.51518 8.21131 9.531C8.61278 9.53773 8.87916 9.76718 9.03272 10.1464C9.56685 11.4589 10.2202 12.708 11.0403 13.8669C11.2596 14.1753 11.4827 14.4823 11.7988 14.7C12.1492 14.9415 12.4169 14.8626 12.5821 14.4703C12.6873 14.221 12.7333 13.956 12.7555 13.6895C12.8341 12.7775 12.8435 11.8644 12.7081 10.955C12.6241 10.3866 12.3027 10.0191 11.7359 9.91164C11.447 9.85652 11.4903 9.75036 11.6295 9.58474C11.8737 9.30023 12.1035 9.1228 12.5587 9.1228H15.9772C16.5163 9.22797 16.6372 9.4708 16.7105 10.0127L16.7132 13.8118C16.7068 14.0217 16.8183 14.6435 17.1949 14.7813C17.4965 14.881 17.6974 14.6381 17.8785 14.4466C18.6972 13.5779 19.2814 12.5506 19.8034 11.4877C20.0345 11.0205 20.2341 10.535 20.4282 10.0492C20.5713 9.68977 20.7944 9.51274 21.1999 9.51913L24.491 9.52315C24.5881 9.52315 24.6879 9.52315 24.7836 9.53891C25.3372 9.63465 25.4895 9.87353 25.3174 10.4154C25.0487 11.2643 24.5223 11.9731 24.0093 12.6829C23.4594 13.4428 22.8742 14.1761 22.3283 14.94C21.8297 15.6395 21.869 15.9912 22.4898 16.5973Z" fill="#7C7C7C"/>
</svg>
