<svg width="16" height="16" viewBox="0 0 16 16" fill="none" xmlns="http://www.w3.org/2000/svg">
<path d="M14.5846 2.06787C13.6593 1.14259 12.4213 0.633057 11.0983 0.633057C9.95931 0.633057 8.88344 1.01081 8.01572 1.70624C7.13553 1.01081 6.05831 0.633057 4.93044 0.633057C3.60131 0.633057 2.36006 1.14281 1.43481 2.06787C0.509531 2.99296 0 4.23115 0 5.55393C0 6.8769 0.509531 8.1149 1.43481 9.03996L7.59309 15.1982C7.70531 15.3107 7.85266 15.3669 8 15.3669C8.14697 15.3669 8.29391 15.3108 8.40634 15.199L14.5696 9.05453C15.4922 8.11124 16 6.87153 16 5.56353C16 4.24343 15.4989 3.00371 14.5846 2.06787ZM13.7517 8.24437L8.00056 13.9779L2.24863 8.22615C1.54091 7.51824 1.15106 6.56918 1.15106 5.55393C1.15106 4.53868 1.54091 3.58962 2.24863 2.88171C2.95653 2.17399 3.90887 1.78415 4.93044 1.78415C5.93572 1.78415 6.88997 2.17571 7.61688 2.88631C7.84209 3.10674 8.20334 3.10481 8.42609 2.88171C9.134 2.17399 10.0829 1.78415 11.0983 1.78415C12.1137 1.78415 13.0626 2.17399 13.7657 2.87709C14.4642 3.59171 14.8489 4.54578 14.8489 5.56353C14.8489 6.56899 14.4576 7.52303 13.7517 8.24437Z" fill="#AB844A"/>
</svg>
